<?xml version="1.0" encoding="utf-8"?>
<!-- Generator: Adobe Illustrator 27.5.0, SVG Export Plug-In . SVG Version: 6.00 Build 0)  -->
<svg version="1.1" xmlns="http://www.w3.org/2000/svg" xmlns:xlink="http://www.w3.org/1999/xlink" x="0px" y="0px" 
     viewBox="0 0 600 600"  style="enable-background:new 0 0 800 800;" xml:space="preserve">
<g id="Layer_2" style="display:none;">
</g>
<g id="Layer_1">
	<g>
		<g>
			<g>
				
					<radialGradient id="SVGID_1_" cx="453.5933" cy="2351.5847" r="227.1094" gradientTransform="matrix(0.9917 -0.1028 0.1031 0.9947 -268.8093 -2050.6838)" gradientUnits="userSpaceOnUse">
					<stop  offset="0" style="stop-color:#EBF7FC"/>
					<stop  offset="0.0056" style="stop-color:#EBF7FC"/>
					<stop  offset="0.0121" style="stop-color:#E7F1F9"/>
					<stop  offset="0.1528" style="stop-color:#93A6D4"/>
					<stop  offset="0.2676" style="stop-color:#5F7CBD"/>
					<stop  offset="0.3508" style="stop-color:#3B67B1"/>
					<stop  offset="0.3939" style="stop-color:#2A60AD"/>
					<stop  offset="0.4657" style="stop-color:#2A5193"/>
					<stop  offset="0.6071" style="stop-color:#243B73"/>
					<stop  offset="0.7247" style="stop-color:#202D61"/>
					<stop  offset="0.8032" style="stop-color:#1F285B"/>
					<stop  offset="0.8485" style="stop-color:#035DA3"/>
					<stop  offset="0.9455" style="stop-color:#2B357E"/>
				</radialGradient>
				<path style="fill:url(#SVGID_1_);" d="M523.665,208.536c47.436,62.682,35.266,152.046-27.222,199.587
					c-62.471,47.551-151.587,35.262-199.023-27.419c-47.442-62.684-35.259-152.041,27.212-199.589
					C387.112,133.565,476.638,149.326,523.665,208.536z"/>
				
					<linearGradient id="SVGID_00000168819243483072215580000014732522172684119738_" gradientUnits="userSpaceOnUse" x1="451.7841" y1="2271.5137" x2="440.2014" y2="2408.1897" gradientTransform="matrix(0.9586 -0.093 0.1094 0.9929 -288.4514 -2046.2292)">
					<stop  offset="0" style="stop-color:#EBF7FC"/>
					<stop  offset="0.0056" style="stop-color:#EBF7FC"/>
					<stop  offset="0.0121" style="stop-color:#E7F1F9"/>
					<stop  offset="0.1528" style="stop-color:#93A6D4"/>
					<stop  offset="0.2676" style="stop-color:#5F7CBD"/>
					<stop  offset="0.3508" style="stop-color:#3B67B1"/>
					<stop  offset="0.3939" style="stop-color:#2A60AD"/>
					<stop  offset="0.5002" style="stop-color:#2A5193"/>
					<stop  offset="0.7095" style="stop-color:#243B73"/>
					<stop  offset="0.8837" style="stop-color:#202D61"/>
					<stop  offset="1" style="stop-color:#1F285B"/>
				</linearGradient>
				<path style="fill:url(#SVGID_00000168819243483072215580000014732522172684119738_);" d="M495.994,216.844
					c42.54,57.748,32.572,139.327-22.267,182.223c-54.822,42.888-133.757,30.846-176.289-26.898
					c-42.537-57.742-32.572-139.328,22.262-182.215C374.53,147.055,453.459,159.105,495.994,216.844z"/>
				
					<radialGradient id="SVGID_00000115486478501040479710000002832379364328526488_" cx="444.7901" cy="2365.8843" r="547.6448" gradientTransform="matrix(0.9917 -0.1028 0.1031 0.9947 -268.8093 -2050.6838)" gradientUnits="userSpaceOnUse">
					<stop  offset="0" style="stop-color:#FFFFFF"/>
					<stop  offset="0.0056" style="stop-color:#FFFFFF"/>
					<stop  offset="0.0476" style="stop-color:#F3F3F6"/>
					<stop  offset="0.1116" style="stop-color:#DBDEE6"/>
					<stop  offset="0.1897" style="stop-color:#B8C0D1"/>
					<stop  offset="0.279" style="stop-color:#8D9DB8"/>
					<stop  offset="0.3776" style="stop-color:#5B799D"/>
					<stop  offset="0.4775" style="stop-color:#025A84"/>
					<stop  offset="0.541" style="stop-color:#10486F"/>
					<stop  offset="0.6139" style="stop-color:#12375D"/>
					<stop  offset="0.6869" style="stop-color:#122B50"/>
					<stop  offset="0.7596" style="stop-color:#102349"/>
					<stop  offset="0.8315" style="stop-color:#102147"/>
					<stop  offset="0.9382" style="stop-color:#32A8D0"/>
					<stop  offset="1" style="stop-color:#95D9F7"/>
				</radialGradient>
				<path style="fill:url(#SVGID_00000115486478501040479710000002832379364328526488_);" d="M532.889,231.317l1.538-0.159
					c-3.958-11.6-7.508-13.251-12.124-19.595c-17.619-24.19-42.707-41.928-71.13-50.757l0.345,0.962
					c0.058,0.046,0.124,0.142,0.166,0.187c0.991,0.621,1.621,1.699,1.848,2.464c0.41,1.364-0.03,2.802-1.125,3.641l-2.107,1.618
					l-1.513-1.499l-0.717-0.11l-0.305-0.419l-0.234,0.177l-0.307-0.219c-0.648,0.528-1.003,0.674-1.831,1.106l-0.437-0.064
					c-0.511,0.12-1.608,0.138-1.941,0.111c-0.523,0.292-1.016,0.391-1.24,0.416c-0.565,0.059-1.107-0.032-1.643-0.266l-3.029-1.286
					l1.414-2.753c0.365-1.064,1.038-1.678,1.66-2.038l0.936-0.69c0.242-0.202,0.525-0.409,0.83-0.6l0.066-0.2l0.352-0.26
					c-0.054-0.308-0.561-2.134-0.78-2.668c-0.759-0.176-1.523-0.349-2.287-0.511l1.773,2.456l-1.101,0.783
					c-0.086,0.412-0.244,0.807-0.485,1.19l-2.021,3.159c0,0-2.785-2.732-2.829-2.767c-1.725-0.635-3.813-0.504-6.033-0.317
					c-0.551,0.269-1.04,0.402-1.407,0.495c-0.111,0.037-0.213,0.059-0.314,0.097c0.143,0.104,0.289,0.21,0.424,0.35l3.622,2.104
					l-2.23,1.925l4.077,3.869c-8.088,0.329-8,0.413-8.745,0.219c-0.52,0.87-1.259,1.402-1.832,1.748
					c0.145,0.881-0.093,1.516-0.317,2.414l-0.346,0.251c-0.609,2.833-3.144,4.098-5.471,3.298c-0.061,0.708-0.224,1.268-0.448,1.738
					c0.064,0.616-0.064,1.166-0.187,1.84c0.034,0.066,0.069,0.132,0.095,0.204l0.362,0.476c0.39,2.858,0.834,3.802,0.136,4.257
					l-0.371,1.314c0.154,1.161-0.948,2.682-2.032,4.549l-2.355,2.718l-1.718-0.717c-0.112,0.343-0.492,0.713-0.732,1.072l0,0
					c0.775,0.234,1.654,0.865,3.522,2.034l-0.854,1.741c0.008,0.084-0.233-2.033-0.233-1.949l-0.328,0.463l-1.756,0.185l1.304,3.017
					l-1.107,3.429c-0.682,1.315-1.864,2.834-3.44,3.283l-2.111,0.767l-0.309-0.333c-0.161-0.034-0.329-0.021-0.471-0.073
					l-0.588-1.472c-0.607,0.065-1.395-1.771-1.929-1.717c-0.913,0.091-0.398,0.018-2.302,0.38l0.035,0.652l-0.184,0.412
					l-0.279-0.529l-0.907,0.219l-0.955-4.476c-0.05-0.003-0.33-2.153-0.374-2.15c-0.057,0.008-0.104,0.011-0.162,0.018
					c-0.714,0.077-1.107,2.15-1.643,1.974l-0.022,1.237l-0.712,0.429c-0.258,0.11-0.548,0.476-0.911,0.516l-1.382,0.217
					l-3.566-2.688l1.675-1.844c0.049-1.255,0.54-1.691,2.364-4.232l2.326,1.596c0.44,0.035,0.734-0.018,1.177-0.148
					c1.031-0.292,1.17-0.279,1.563-0.3c0.038-0.006,0.065-0.025,0.109-0.028l2.029,0.166l0.679,2.076h0.044
					c0.022,0,1.572-2.824,1.572-2.824l0.089-0.659c0.073-0.117,0.866-1.452,0.968-1.551c0.054-0.155-0.024-0.518-0.089-0.709
					l-0.26,0.141l-1.224-1.914l-1.589,1.108l-0.542-0.98l-0.358-0.021l-0.092-0.07c-0.112-0.092-0.908,0.482-1.561,0.549
					c-0.971,0.098-1.3-0.07-2.126-0.371c-0.274-0.02-0.665-0.813-1.015-0.813c-0.519,0-1.096-0.85-1.689-0.85
					c-0.004,0-0.02,0-0.026,0l-1.098,1.77l-0.336,0.246c-0.103,0.046-0.197,0.299-0.297,0.339c-0.594,0.46-1.187,0.757-1.658,0.824
					l-2.792,2.253l-0.075-0.103l-3.682,7.124l0.969-1.101l-0.484,0.052c-0.607,0.064-1.46-3.199-1.827-3.314
					c-1.513-1.831-0.98-1.023-2.328-3.528l-0.594-2.079c-0.294,0.876-0.996,0.511-2.315,0.651l0.583,1.561l-0.938,1.004l1.417,1.058
					c-0.029,0.021-5.479,3.27-5.509,3.288l0.383,0.558l-0.238,1.598l0.448-0.446c0.064-0.085,0.114-0.16,0.114-0.162
					c-0.029,0.14-0.286,0.933-0.336,1.077l-0.343,0.349l-0.187,1.188l0.07,0.078l-0.08,0.052l-0.05,0.304l0.304,0.616l-0.6,1.322
					l-0.143,0.966l0.711,1.536l-1.468,1.101c-0.032,0.081-0.073,0.18-0.099,0.264c0.507,0.554,0.129,0.105,1.948,2.386l6.092-1.702
					l-6.866,7.479c0.066,0.383,0.075,0.753,0.072,1.078l6.407,1.928l-4.707,2.192c0.031,0.106,0.055,0.198,0.073,0.293l1.135,0.451
					c-0.485,3.34-0.297,2.096-0.412,2.737l2.171,1.936l0.089,1.297l3.267-0.06l0.049,0.479c0.046,0.427-2.715,1.136-2.596,1.492
					c0.077,0.267-1.456,0.827-1.481,1.285c0.082,0.59-0.793,1.378-1.208,2.127l3.482,9.74l-5.417-3.609l-0.131,0.06l0.512,0.715
					l-0.268,0.201l1.072,0.856l1.837,0.535l-0.799,1.397c1.566,0.006,1.061,0.014,2.068-0.014l0.21,1.024h0.847
					c0.217-2.985,0.608-1.778,0.852-2.117c0.144-0.625,2.3-6.673,2.509-7.277l2.801,5.78c0.498,0.256,0.878,0.563,1.192,0.891
					c0.752-0.035,1.824-1.378,2.763,0.106l0.082-1.153l0.077-0.014l0.832,2.342c0.147,0.078,0.398,0.917,0.579,1.026
					c0.305,0.145,0.657,0.687,0.94,0.861c0.137-0.337,0.349-0.494,0.627-0.84c-0.017-0.083-0.01-0.057-0.019-0.152
					c-1.56-2.402-1.011-1.71-2.465-3.135l0.555-0.462c-0.241-0.621-0.339-1.181-0.339-1.67c-0.247-1.46-0.052-2.266,0.122-3.39
					l-0.318,0.228c-1.573-0.467-2.181-0.574-2.908-1.04c-1.773-0.701-2.315-2.621-2.773-3.753l-0.129,0.042l-3.441-4.706
					l2.331-1.183c-0.095-0.864-0.178-0.899-0.562-2.375c0.153-0.983,0.149-1.283,0.657-2.171l-0.008-1.099l0.349-0.251
					c-0.032-0.2-0.051-0.415-0.054-0.617c-0.038-0.018-1.361-0.881-1.361-0.881c-0.14-1.775-0.207-2.017-0.05-3.417
					c0.02-0.211,0.05-0.484,0.05-0.671l-0.958-1.614l1.38-1.659c0.314-0.377,0.939,0.5,1.651,0.235l0.848,0.783l0.038-0.003
					c0.533-0.056,1.148-2.517,2.415-2.646c0.414-0.923,0.219-0.388,0.846-2.442l1.103-1.372l0.054-0.004l1.285,1.678l0.633,1.974
					c0.474,0.573,0.835,1.515,0.996,2.08c0.055,0.141,0.103,0.478,0.134,0.615l0.143,0.268c-0.32,4.777,0.091,6.488-0.057,10.105
					l0.148,0.202c0.244,0.194,0.499,0.39,0.736,0.645c0.409,0.394,0.27,0.162,0.844,0.792l0.342,0.133
					c0.682,0.948,0.777,0.981,1.184,2.028c0.494-0.011,0.936,0.07,1.337,0.221c0.042-0.099,0.092-0.186,0.154-0.285l0.107-0.596
					c0,0,1.214-0.845,1.284-0.893l0.2-0.492l0.413-0.29c0.016-0.064,0.05-0.116,0.086-0.166l0.066-0.239l0.53,1.004
					c0.485-0.617,1.236,0.131,1.684,0.131c0.01,0,0.01,0,0.025,0l0.568-1.174c0.315,0.116,3.564,1.314,3.873,1.441
					c0,0,0.339,0.005,7.19-0.667l-3.66,0.702c0.006,0.737-0.301,0.758-0.771,1.364c-0.093,0.133-0.227-0.092-0.329,0.032
					c-0.02,0.235-0.077,0.274-0.127,0.471c-0.225,0.85-0.774,1.46-1.536,1.887l-2.248,1.585l0.558,0.749
					c0.964,0.791,2.008,2.057,2.446,3.393l0.19,0.856l-0.017,0.13c0.151,1.145-0.62-1.914-1.419-0.994l-1.228-3.302l-0.563,0.06
					l-0.027,4.832c0.114,0.152,0.459,2.417,0.58,2.607c0.894,1.216,2.766,3.154,2.616,3.983c0.006,0.206,1.72,1.249,1.738,1.443
					c0.007,0.035,0.012,0.086,0.015,0.116c0.002,0.029-1.684,0.22-1.728,0.262c-0.22,0.247-0.827,0.662-0.665,0.972
					c0.005,0.762-0.445,1.657-0.702,2.534l-0.488,0.948c-1.003,0.716-1.938,1.591-3.537,1.42c-1.626,1.608-1.795,4.074-4.31,5.213
					l-0.612,4.024l-2.335-3.063c-0.554,0.572-1.385-0.148-2.064-0.073c-0.064,0-0.117,0.007-0.177,0.015l-0.194,1.307
					c0.016,0.1,0.237,3.951,0.237,3.951l-2.537,0.727c-0.482,1.039-0.518,0.892-0.964,1.673c-0.082,0.131-0.12,0.2-0.191,0.303
					c-0.06,0.449-0.085,0.723-0.234,1.309c0.01,0.073,0.025,0.13,0.047,0.165l0.993,2.467l-0.298,0.197
					c0.083,1.36-0.548,2.629-1.452,3.546c0.102,0.162,0.197,0.366,0.282,0.581l0.492,0.699c-0.302,1.657-0.372,2.428-1.025,3.436
					c-0.13,1.078-0.413,1.92-0.796,2.554l0.433,0.751l-0.441,0.94l0.187-0.017l0.58,1.121c0.63,0.085,1.237,0.299,1.78,0.701
					c1.668,0.828,6.711,0.299,6.711,0.299l0.827-0.528c0.575-0.634,1.31-0.969,2.144-1.17l1.034-1.145l0.333,0.158
					c0.092-0.332,0.413-1.784,0.498-2.175c0.476-2.181,1.824-3.753,2.795-3.99c0.429-0.146,0.774-1.088,1.225-1.132
					c0.085-0.011,0.18-0.019,0.27-0.029l0.32-0.315c-0.096,0.452,0.088,1.266,0.26,1.568c1.05,0.026,1.974,0.55,2.749,0.906
					l-1.973-4.652c-0.249,0.25,0.67,0.444,0.67,0.444l0,0c-0.048-0.437-0.57-1.279,0.371-2.112l1.707-3.059l0.851,0.695l0.137-0.015
					c0.54-0.052,1.536,1.093,2.38,1.753c0.558,0.042,1.141,0.743,1.616,0.983c0.321-0.071,0.647,0.169,0.964,0.136
					c0.579-0.056,1.279,1.199,1.827,1.29l0.234,1.122l0.184-0.023c0.338-0.035,0.547-1.278,0.892-1.32
					c0.948-0.091,1.776,0.462,2.31,0.595c0.035,0.007,0.087,0.385,0.11,0.385l0.613-0.064c0.541-0.056,1.161-0.92,1.897-0.465
					l0.836-0.451l0.807,1.169c0.231,0.48,0.506,0.752,0.678,0.752h0.133l-0.653-1.113c1.07-1.14,0.657-0.712,1.813-1.876h0.018
					c0.353,0,0.663-1.47,1.098-1.801l-0.027-0.313l0.684-0.631c0.187-0.279,0.415-0.589,0.72-0.831l-0.185,0.206
					c-0.089,0.241-0.215,0.451,0.082,0.741c0.103,0.035,0.55-0.142,0.458-0.331c0.323-0.24-0.114-0.688-0.365-0.673
					c0.269-0.222,0.594-0.423,0.993-0.585c-0.357-0.239-0.628-0.511-0.807-0.726l-1.101-1.27l0.349-1.151
					c-0.01-0.095,3.046-0.486,3.02-0.572c-0.079-0.464,2.908-1.243,2.862-1.694c-0.007-0.039-0.014-0.085-0.014-0.121l-3.621-0.355
					l-1.662-0.706c-0.07-0.49-0.968-1.374-0.605-2.421l-1.431-1.53l0.622-0.562c0.002-0.007,2.965-0.65,2.965-0.65l3.032-0.482
					c-0.01-0.141-0.022-0.265-0.039-0.389c-4.019-0.412-2.971-0.217-4.79-0.837c0-0.977-0.326-2.144,1.406-3.223l-0.206-0.081
					c-0.08,0.06-0.329,0.141-0.387,0.19l1.153-1.078l1.566,0.233l-0.35-0.55l2.032-0.856c0.013-0.006,0.007-0.029,0.016-0.046
					l0.818,0.398c0.264-1.078,1.855-0.993,2.329-1.576l0.016-0.023c0.665-0.808,0.361-2.331,0.967-2.997
					c0.232-0.249,0.089-0.814,0.271-1.075l5.252-7.71c-0.014,10.474,0.171,9.833-0.629,11.562c0.084,0.12,0.137,0.243,0.21,0.399
					c1.897,0.345,2.766,0.464,3.832,0.858l2.191-2.113l1.537,2.077c0.273,0.154,0.534,0.349,0.751,0.595
					c0.174,0.088,0.397,0.197,0.667,0.371c2.153,0.858,2.925,3.413,1.96,5.454c-0.139,0.554-0.396,1.08-0.761,1.544
					c-0.392,0.796-1.043,1.316-1.564,1.664l-0.157,0.404l-0.578,0.244c-0.184,0.2-0.422,0.416-0.724,0.599l-1.388,1.016
					c-1.003,0.362-2.874,1.065-4.767,1.085c-0.239,0.144-0.55,0.3-0.918,0.401l-0.399,0.308l-2.632,0.317
					c-0.061,0.028-2.688,0.449-2.688,0.51c0,0.881,0-0.574,0,0.306l1.498,0.437c-0.074,0.311,0.817,0.698,0.511,1.239l0.732,0.679
					l-1.031,0.888l0.653,0.67l-1.101,0.474c-0.358,0.849-0.638,1.66-1.176,2.285l1.212,1.8c0.662-0.155,0.605-0.173,1.572-0.385
					l0.302-1.492l1.725-0.487c0.272-0.13,0.733-0.342,1.316-0.441c0.164-0.064,0.353-0.135,0.574-0.184l0.941-0.655l0.143,0.078
					l0.035-0.067c0.127-0.712,0.802-3.01,4.078-3.353c0.809-0.081,0.244-0.035,2.833-0.19c1.668,3.683,0.622,1.373,2.788,4.631
					c0.186,0.683,0.307,1.097,0.234,1.851l0.757,1.511l-0.133,0.094c0.064,0.198,0.185,0.77,0.2,0.837l0.923,2.241l-0.378,0.31
					l0.047,0.202l0.56,1.054l-0.773,2.184l-0.283,0.357c0.4-0.769,0.209-0.311,0.858-2.119h1.688c1.66,0,2.995,1.322,3.963,1.843
					c0.332,0.173,0.665,0.67,0.866,0.751c0.31,0.084,0.633,0.292,0.967,0.296l0.199,0.088l3.581,0.6l-0.117,0.714
					c1.502,0.441,4.651,1.886,5.661,2.336l0.317,0.599l0.731-0.387c1.899,1.522,4.261,1.515,6.166,2.499
					c0.222,0.122,0.23,0.488,0.445,0.606l0.506,0.211c1.523,1.266,1.342,1.118,1.819,1.637l0.757-0.688
					c0.167,0.112,1.954,1.349,2.116,1.476c-0.022-0.01-0.273,0.279-0.175,0.162l-0.209,0.205c0,0,0.544-0.581,0.554-0.606
					l-0.058-0.09l1.847-1.381c0.505-0.683,0.968-1.809,1.412-2.616c0.202-0.797,0.58-1.4,0.841-1.802
					c0.056-0.091,0.114-0.186,0.167-0.289c0.109-0.214,0.064-0.141,0.217-0.334c0.157-0.219,0.329-0.436,0.503-0.667l-1.348-1.458
					l1.941-1.399c0.332-0.859,0.85-1.534,1.239-2.048c0.388-0.525,0.15-0.116,0.704-1.093l0.438-0.319l0.026-0.404l0.044-0.01
					c0.024-0.373,0.134-0.726,0.241-1.163l0.193-0.268c-0.027-0.811,0.222-1.508,0.491-2.068c-0.172-0.406-0.05-0.106-0.237-0.487
					l-2.975-2.75l0.831-0.36c-0.467,0.029-0.923-0.014-1.352-0.147c-0.422,1.487-1.672,2.302-2.434,2.8
					c-0.154,0.107-0.316,0.212-0.44,0.308c-0.987,0.899,0,0.201-1.9,1.565c-1.064,0.148-2.852,0.577-4.491-0.729
					c-1.211-0.062-2.306-0.458-3.485-1.568c-4.465-1.149-3.866-0.945-7.83-2.918l0.514-1.836c-0.077-0.672,0.029-0.957,0.349-2.862
					l0.923-0.88c9.56,0,25.198-6.119,33.546-10.186l0.222-0.229l0.235,0.081l1.186-1.278l1.96,1.528l3.152-1.952l0.612,1.556
					l2.959-2.202l1.576,2.625c0.146,0.124,0.321,0.286,0.517,0.505c0.532,0.451,0.87,0.974,1.088,1.311
					c0.181,0.208,0.323,0.409,0.463,0.616c0,0,0.473,0.454,0.495,0.462l0.691,0.233l0.448,0.681
					c0.953,0.818,0.436,0.523,1.531,1.028l0.34,0.479l0.231,0.127c1.32,1.189,1.453,1.152,2.3,1.503l0.368,0.433
					c1.003,0.525,1.919,0.539,2.997,2.016c1.268,0.796,2.714,1.427,4.265,2.404l0.163,0.035l0.168,0.098l0.296-0.24
					c-0.024-0.225-0.052-0.485-0.042-0.775c-1.558-1.163-1.635-2.503-1.79-3.509l0.132-0.352l-0.127-0.167l-0.137-0.398
					c-0.866-1.192-1.615-2.103-1.999-3.171l-0.679-0.931l0.552-1.142l0.042-0.61l0.657-0.335c0.095-0.208,0.538-0.705,0.538-0.705
					c-0.063-0.87-0.388-1.427-0.222-2.297l0.202-1.262l0.232-0.197c0.463-1.35,0.56-3.379,1.428-5.42
					c0.031-0.124,0.07-0.243,0.106-0.353l-0.697-0.712l0.585-0.529l-0.424-0.718l0.316-0.221c-0.037-0.322-0.012-0.466,0.02-0.748
					l0.212-1.442l0.65-0.472c0.65-0.921,1.091-1.497,2.213-1.97c0.058-0.106,0.062-0.656,0.13-0.75L532.889,231.317z"/>
				
					<radialGradient id="SVGID_00000159443419418284232600000014260343754808253841_" cx="444.7038" cy="2370.2402" r="550.2211" gradientTransform="matrix(0.9917 -0.1028 0.1031 0.9947 -268.8093 -2050.6838)" gradientUnits="userSpaceOnUse">
					<stop  offset="0" style="stop-color:#FFFFFF"/>
					<stop  offset="0.0056" style="stop-color:#FFFFFF"/>
					<stop  offset="0.0476" style="stop-color:#F3F3F6"/>
					<stop  offset="0.1116" style="stop-color:#DBDEE6"/>
					<stop  offset="0.1897" style="stop-color:#B8C0D1"/>
					<stop  offset="0.279" style="stop-color:#8D9DB8"/>
					<stop  offset="0.3776" style="stop-color:#5B799D"/>
					<stop  offset="0.4775" style="stop-color:#025A84"/>
					<stop  offset="0.541" style="stop-color:#10486F"/>
					<stop  offset="0.6139" style="stop-color:#12375D"/>
					<stop  offset="0.6869" style="stop-color:#122B50"/>
					<stop  offset="0.7596" style="stop-color:#102349"/>
					<stop  offset="0.8315" style="stop-color:#102147"/>
					<stop  offset="0.9382" style="stop-color:#32A8D0"/>
					<stop  offset="1" style="stop-color:#95D9F7"/>
				</radialGradient>
				<path style="fill:url(#SVGID_00000159443419418284232600000014260343754808253841_);" d="M409.149,183.134
					c-0.048-0.007-0.089-0.025-0.128-0.028l0.173,2.72c0.091,0.028,0.164,0.047,0.254,0.07L409.149,183.134z"/>
				
					<radialGradient id="SVGID_00000129886842022228313750000011615333938632340880_" cx="446.2186" cy="2374.6089" r="519.662" gradientTransform="matrix(0.9917 -0.1028 0.1031 0.9947 -268.8093 -2050.6838)" gradientUnits="userSpaceOnUse">
					<stop  offset="0" style="stop-color:#FFFFFF"/>
					<stop  offset="0.0056" style="stop-color:#FFFFFF"/>
					<stop  offset="0.0476" style="stop-color:#F3F3F6"/>
					<stop  offset="0.1116" style="stop-color:#DBDEE6"/>
					<stop  offset="0.1897" style="stop-color:#B8C0D1"/>
					<stop  offset="0.279" style="stop-color:#8D9DB8"/>
					<stop  offset="0.3776" style="stop-color:#5B799D"/>
					<stop  offset="0.4775" style="stop-color:#025A84"/>
					<stop  offset="0.541" style="stop-color:#10486F"/>
					<stop  offset="0.6139" style="stop-color:#12375D"/>
					<stop  offset="0.6869" style="stop-color:#122B50"/>
					<stop  offset="0.7596" style="stop-color:#102349"/>
					<stop  offset="0.8315" style="stop-color:#102147"/>
					<stop  offset="0.9382" style="stop-color:#32A8D0"/>
					<stop  offset="1" style="stop-color:#95D9F7"/>
				</radialGradient>
				<path style="fill:url(#SVGID_00000129886842022228313750000011615333938632340880_);" d="M504.158,356.45v-0.117
					c0-0.863-0.022-1.536,0.254-2.039l-0.127-1.015l0.484-0.434c-0.209-0.279-0.663-0.639-0.939-0.86l-0.382-0.503
					c-0.407-0.314-0.727-0.663-0.966-0.911c-0.054-0.076-0.117-0.155-0.164-0.205c-1.003-0.283-1.381-0.774-3.8-2.871l1.39-1.234
					c0.215-0.603,0.225-1.123,0.394-2.763l0.268-0.212c0.59-2.972,1.348-4.528,2.1-5.646c0.095-0.433,0.151-0.852,0.151-1.294
					c-0.519-0.289-0.9-0.69-1.183-1.021l-0.32-0.08l-2.407-3.219c-0.352-0.281-0.272-0.246-0.678-0.381
					c-0.374-0.065-0.67-0.197-0.901-0.298l-0.821-0.152l-2.183-3l-0.412,0.01l-0.756-1.005l0.309-0.132l-1.262-2.437v-0.961
					c0-0.099-0.539-0.184-0.562-0.281l-0.642-2.047l-0.06-0.042c-0.339-2.32-0.216-2.706-0.006-4.929l0.656-0.364
					c0.06-2.165-0.402-5.668,1.366-8.987l-0.082-0.446c0.543-1.344,0.828-1.695,0.361-5.127l-0.551-0.819l-0.02-0.844
					c-0.051-0.207-0.463-0.49-0.463-0.794c0-0.622,0.129-1.713,0.082-2.186c-0.01-0.209,0.149-0.401,0.14-0.598l-0.774,0.637
					l-0.218,0.483l-0.044,0.055c-0.302,0.881-0.52,1.065-1.65,2.733l-0.787-0.209c-0.575,1.013-0.269,0.543-2.166,3.181
					l-2.041-1.229c-0.292-0.07-0.744-0.192-1.237-0.469c-0.955-0.295-1.72-0.841-2.313-1.269c-0.13-0.092-0.306-0.229-0.421-0.316
					c-1.076,0.075-2.018-0.062-2.868-0.191c-0.688-0.095-1.294-0.194-1.789-0.142c-0.264,0.027-2.097,0.542-2.357,0.612
					l-0.798-1.197c-0.477-0.313-0.32-0.246-0.753-0.573l-0.488-0.169l-0.493-0.495c-0.185-0.197-0.384-0.256-1.285-0.398
					c-0.963-0.152-2.341-0.376-3.656-1.337l-0.543-0.065c-1.035-1.422-0.711-1.115-1.45-1.581c-0.231-0.318-0.348-0.46-0.531-0.75
					c-1.645,0.114-3.283-0.366-4.511-1.867c-0.164-0.092-0.508,0.056-0.625-0.031l-0.089-0.075
					c-0.237-0.444-0.146-0.289-0.421-0.715c-1.472-1.047-3.204-1.142-5.221-3.263l-1.834-1.943l-1.82,0.028
					c-0.027,0.067-0.055,0.148-0.072,0.212c-0.336,1.529-1.685,2.784-3.702,3.33c-0.358,0.169-0.697,0.269-0.965,0.335l-0.319,0.219
					c-1.392,0.251-0.898,0.046-3.752,2.345h-0.275h-0.419c-0.016,0-0.038-0.318-0.062-0.311c-0.567,0.398-1.186,0.47-1.845,0.535
					c-0.498,0.054-0.937-0.094-1.307-0.18l-0.055,0.082l-0.103,0.04c1.238,1.672,1.297,3.677,0.113,5.35l-0.358,0.508
					c-1.014,0.583-1.668,0.973-3.025,1.118c-0.281,0.025-0.746-1.678-1.022-1.67c-0.112,0.002-0.394-1.7-0.551-1.685
					c-0.037,0.005-0.074,0.008-0.11,0.01c-0.87,2.843-0.676,2.187-0.959,3.194c-0.31,0.142-0.624,0.685-1.036,0.724l-0.292,0.244
					l-0.57-1.508c-0.984,0.045-1.974-2.156-2.494-2.101c-0.01,0-0.024,0.005-0.044,0.01l-0.088,1.917l-0.81,0.801
					c-0.026,0.03-0.026,0.458-0.061,0.483c-0.419,0.308-0.944,0.891-1.64,1.129l-0.923,4.735l-3.067-3.714
					c-1.21,0.045,0.159-0.842-0.51-1.981c-0.349-0.623,2.052-1.519,1.988-2.139c-0.017-0.169-0.034-0.324-0.044-0.456
					c-0.018-0.15-2.839-0.02-2.98-0.182c-0.231,0.292-1.782,0.715-2.172,0.976l-1.58,0.723l-0.326,0.127l-0.983,0.598
					c-0.055,0.069-0.18,0.149-0.234,0.231l-0.457,0.575l-0.046,0.015c-0.433,0.706-0.958,1.14-1.632,1.488l-0.414-1.927
					c-0.289,0.114-0.787-1.783-1.103-1.783h-0.008c-0.029,0,0.137,2.057,0.107,2.081c-0.07,0.075-0.064,1.155-0.137,1.239
					c-0.045-0.121-0.202-1.324-0.251-1.429c0-0.124-0.195-1.702-0.319-1.688l-0.042,0.005c0.131-0.015-0.053,1.768-0.127,1.559
					l-0.016,1.466l-0.184,0.022c-0.2,0.015-0.429-0.583-0.605-0.852c0.044-0.284-0.247-0.824-0.388-1.145
					c0.064-0.165-0.354-0.826-0.529-0.816l-0.069-0.13l-0.127-0.035c-0.426,0.191-0.841,0.199-1.307,0.618l-0.077,0.044
					c-0.238-0.1-0.518,0.338-0.653,0.473l-0.009,0.119c-0.406,0.474-0.385,1.013-0.316,1.564l0.301,0.104l0.061,0.07
					c0.466,0.164-0.837,0.607-0.794,0.917l-0.202,0.157c-0.191,0.109-0.156,0.271-0.141,0.425c0.385,0.165,0.832-0.104,1.206,0.125
					c-0.095,0.331-0.423,0.622-0.156,1.005l0.248,0.045c0.297-0.239,0.565-0.394,0.837-0.394c0.017,0.182,0,0.344-0.085,0.503
					c0.155,0.374,0.195,0.739,0.602,0.672c-0.13,0.234-0.237,0.488-0.361,0.708c-0.127,0.229-0.231,0.445-0.302,0.674
					c0.122,0.077,0.189,0.431,0.331,0.313c0.215,0.214,0.47,0.142,0.72,0.1c-0.456,0.595-0.643,0.871-1.083,1.307l-0.018,0.112
					l-0.326,0.37c-0.188,1.151-0.476,1.604-1.031,2.418c-0.161,3.592-0.029,2.212-0.581,6.042l-0.148,0.012l-0.562-2.303
					l-0.807-1.412c-0.189,0.155-0.475-0.286-0.754-0.022l-1.252,0.864l-0.124-0.204c0.187,1.15,0.204,2.475-0.658,3.961
					c-0.172,0.303-0.378,0.507-0.582,0.722c0.213,1.023,0.238,1.508,0.184,2.206c0.092,0.105,0.184,0.205,0.294,0.309
					c0.667,0.741,1.702,1.864,1.819,3.525l0.021,0.428l-0.034,0.269c-0.023,0.441-0.051,1.28-0.524,2.145
					c-0.256,0.73-0.6,1.362-0.909,1.925c-0.229,0.43-0.612,1.128-0.609,1.372l0.298,0.706c-0.107,0.737-0.131,1.011-0.311,1.713
					l0.234,0.438l-0.07,0.438c0.187,0.373,0.188,0.234,0.394,0.794l0.612,0.861c-0.951,2.67-0.564,1.63-0.742,2.52
					c0.428,1.007,0.469,1.286,0.879,2.76c0.533,0.115,0.824,0.418,1.401,0.993l0.388,0.729l0.048,0.479
					c0.05,0.488,7.115,0.817,7.49,2.962l4.78-0.438l0.024,0.18c0.041,0.393-3.803,1.374-3.629,2.11l1.875-0.105
					c0.156,0.451,2.03,0.679,2.065,1.056c0.007,0.07,0.019,0.139,0.028,0.199c0.049,0.536-3.096-1.385-2.553-0.678
					c0.485-0.017-3.248-2.036-2.636-2.103c0.314-0.032,0.196-0.022,0.542-0.058c0.312-0.029,0.251-0.025,0.448-0.044l0.239-0.025
					c1.019-0.107,2.116,3.131,2.719,3.44l0.34,1.503c0.095,0.032,0.285,0.778,0.396,0.804c0.403,0.088,0.993,0.566,1.604,0.855
					l0.642,0.534l0.229,0.276l0.839,0.891l0.688-0.069c0.249-0.027,0.493-0.264,0.787-0.273c0.473-0.022,0.993-0.14,1.555-0.12
					c0.85,0,1.719-0.044,2.51-0.128c1.324-0.132,1.571-0.463,1.571-0.468c0.306-0.458,0.283-0.409,0.41-0.521
					c0.047-0.082,0.108-0.181,0.184-0.279l0.073-0.491l0.73-0.679c0.037-0.041,0.142-0.177,0.226-0.301
					c0.1-0.129,0.623-0.885,0.623-0.885l0.233-0.209c0.589-0.543,1.141-0.824,1.502-0.996c0.07-0.04-0.085-2.216-0.008-2.255
					l0.355-2.515l0.373-0.04c0.115-0.011,0.464,2.038,0.571,1.982c0.263-0.099,0.656,0.125,0.948,0.022
					c0.14-0.049,0.333,2.636,0.473-0.35h0.229c0.021,0.336,0.033,0.759,0.085,1.044l0.553-0.455c0.332-0.406,0.576-0.78,0.887-1.388
					c0.177-0.378,0.365-0.696,0.57-1.063c0.119-0.286,0.351-0.746,0.849-1.202c0.468-0.597,1.075-0.965,1.509-1.247
					c0.114-0.088,0.235-0.143,0.314-0.212c0.172-0.144,0.28-0.221,0.49-0.376c0.916-0.672,1.038-0.754,1.724-1.252l0.815-0.05
					c0.673-0.044,1.25,0.065,1.634,0.15c0.083,0.01,0.177,0.04,0.171,0.04l1.165-0.164l0.817,0.829c1-0.948,2.001-1.67,2.922-2.273
					l0.46-0.12c0.912-0.221,1.843-0.197,2.945,0.184c0.239,0.09,0.55,0.254,0.812,0.383l0.413,0.179l0.352,0.371
					c0.279,0.205,0.811,0.588,1.253,1.297l0.233,0.358c0,0,0.142,0.5,0.152,0.543l0.773,0.961l-0.232,0.622
					c0.149,0.165,0.689,0.971,0.814,1.155l0.088,0.366c0.015,0.012,0.308,0.601,0.428,1.078c0.169,0.09,0.746,0.393,0.882,0.473
					c0.264,0.04,0.536,0.103,0.796,0.192c0.595,0.147,1.215,0.236,1.872,0.286l1.418,0.194l0.053,0.075
					c0.296,0.08,0.628,0.204,0.954,0.406l0.709,0.258c0.117,0.117,0.643,0.666,0.762,0.776l0.434,0.059l0.124,0.17
					c0.936,0.304,1.655,0.873,2.146,1.289c0.403,0.314,0.117,0.165,1.056,0.656c0.444,0.605,0.413,0.375,0.971,1.114l0.244-0.184
					c2.706,2.886,1.704,1.873,2.988,2.911l0.061,0.155c1.12,1.14,1.223,2.374,1.228,3.032c0.05,0.562-0.027,1.132-0.231,1.65
					c0.107,0.321,0.395,0.764,0.583,1.072c0.134,0.628,0.041,0.418,0.545,1.469c0.428,0.812,0.099,0.345,0.935,1.48l0.07,0.328
					c0.199,0.24,0.492,0.428,0.746,0.603l0.043,0.06c2.091,0.688,2.905,1.265,3.915,2.052c0.635,0.482,0.46,0.368,0.919,0.488
					c0.609,0.162,1.525,0.403,2.442,1.114l0.264,0.032c0.793,0.869,0.974,1.014,1.471,1.798c0.006,0,0.013,0.01,0.016,0.018
					l0.147,0.07l0.381,0.463l0.488-0.469c0.121,0.165,2.001,2.851,2.099,3.025c0.036,0.047,0.397,0.422,0.465,0.495l0.174,0.086
					l0.254,0.269c0.081,0.031,0.57,0.165,0.729,0.225c0.247,0.047,0.484,0.124,0.716,0.222c0.074,0.007,0.137,0.02,0.203,0.024
					l0.647-0.458l1.357,0.821c0.479,0.159,1.135,0.526,1.474,0.762l2.051,0.646l-0.346,1.702c0.98,0.614,2.178,1.566,2.761,2.996
					l0.915-0.682l0.11,0.08c0.114-0.125,0.261-0.231,0.423-0.339c0.246-0.702,0.183-0.545,0.63-1.539
					c1.155-0.69,0.932-0.533,1.748-1.205c0.552-0.456,1.17-0.98,1.984-1.37l0.065-0.044c0.179-0.184,0.371-0.378,0.59-0.565
					l0.107-0.508l0.603-0.411c1.145-2.858,1.252-5.882,1.346-8.441l0.615-0.519c0,0-0.013-0.337-0.026-0.515l-0.308-0.408
					c0.137-0.466,0.476-1.548,0.517-1.996c-0.31-1.116-0.156-0.739-0.711-1.748l0.014-0.12l-2.573-0.647l1.65-2.334
					C503.752,356.967,504.158,356.698,504.158,356.45z"/>
				
					<radialGradient id="SVGID_00000142162351479325832800000017454230402808264612_" cx="444.7213" cy="2360.1555" r="582.3235" gradientTransform="matrix(0.9917 -0.1028 0.1031 0.9947 -268.8093 -2050.6838)" gradientUnits="userSpaceOnUse">
					<stop  offset="0" style="stop-color:#FFFFFF"/>
					<stop  offset="0.0056" style="stop-color:#FFFFFF"/>
					<stop  offset="0.0476" style="stop-color:#F3F3F6"/>
					<stop  offset="0.1116" style="stop-color:#DBDEE6"/>
					<stop  offset="0.1897" style="stop-color:#B8C0D1"/>
					<stop  offset="0.279" style="stop-color:#8D9DB8"/>
					<stop  offset="0.3776" style="stop-color:#5B799D"/>
					<stop  offset="0.4775" style="stop-color:#025A84"/>
					<stop  offset="0.541" style="stop-color:#10486F"/>
					<stop  offset="0.6139" style="stop-color:#12375D"/>
					<stop  offset="0.6869" style="stop-color:#122B50"/>
					<stop  offset="0.7596" style="stop-color:#102349"/>
					<stop  offset="0.8315" style="stop-color:#102147"/>
					<stop  offset="0.9382" style="stop-color:#32A8D0"/>
					<stop  offset="1" style="stop-color:#95D9F7"/>
				</radialGradient>
				<path style="fill:url(#SVGID_00000142162351479325832800000017454230402808264612_);" d="M400.374,424.618l0.043-0.263
					l-0.272-1.573c0.034-0.454-0.036-0.44,0-0.983c-0.204-0.673-0.201-0.625-0.512-1.262l-0.618-0.648l-0.08-0.862
					c-0.089-0.238-1.554-2.486-1.696-2.711l0.357-0.264c-0.902-1.3-0.566-0.876-0.969-1.367c-1.856-2.297-1.663-3-1.573-5.228
					l0.251-0.186c-0.046-1.325-0.502-3.872,0.125-5.655c0-0.043,0.109-0.869,0.156-0.869c-0.356-10.061-0.013-0.872-0.02-1.023
					l-0.914-1.362l-0.777-0.19c-0.229,0.099-0.568,0.295-0.827,0.434c-1.583,0.927-1.887,0.953-3.49,1.397l-0.564-0.285
					l-0.551,0.698l-1.189-0.597c-0.239,0.159-0.498,0.352-0.749,0.522c-0.655,0.483-1.461,0.292-2.303,0.66l-1.011-0.401h-0.015
					l-0.445,1.271l-0.63,0.23c-0.407,0.303-0.914,0.825-1.583,0.968l-0.697,0.57l-1.135-0.406c-0.07,0.02-0.141,0.052-0.214,0.074
					l-0.343,0.24c-1.068,0.007-1.011-0.035-2.032,0.185l-3.891,2.742l-0.438-0.773c-0.812,0.234-1.573,0.247-2.397-0.096
					l-3.778,0.58l0.708-3.022c-0.863-0.389-1.973-1.026-2.795-1.506c-0.052-0.008-0.109-0.008-0.159-0.01
					c-1.862,0.146-0.694-0.22-2.778,0.532l-0.412-0.222l-2.004,1.282l-0.125-0.152l-1.271,0.935
					c-1.507,0.463-1.212,0.375-1.951,0.43c-1.944,0.232-3.308,0.437-5.226-0.261c-0.241,0.119-0.495,0.213-0.756,0.285l-2.223,2.946
					l-1.905-3.264c-0.394,0.149-0.749,0.244-1.02,0.28c-0.13,0.095-0.586,0.411-0.698,0.503c-0.259,0.309-0.459,0.688-0.761,1.013
					c-0.513,0.539-1.044,0.82-1.43,0.973l-2.29,2.115l-0.448-0.643c-0.031,0.045-1.619,1.954-1.619,1.954
					c18.008,11.287,38.502,18.334,59.661,20.496c0.326-0.764,0.823-1.898,1.056-2.698l-0.134-0.599
					c3.089-2.975,2.168-1.862,3.577-3.137l0.117-0.206c0.042-0.083-0.002-0.363-0.11-0.692L400.374,424.618z"/>
				
					<radialGradient id="SVGID_00000153679828965018505810000014858337916440149439_" cx="445.7988" cy="2370.2822" r="555.6999" gradientTransform="matrix(0.9917 -0.1028 0.1031 0.9947 -268.8093 -2050.6838)" gradientUnits="userSpaceOnUse">
					<stop  offset="0" style="stop-color:#FFFFFF"/>
					<stop  offset="0.0056" style="stop-color:#FFFFFF"/>
					<stop  offset="0.0476" style="stop-color:#F3F3F6"/>
					<stop  offset="0.1116" style="stop-color:#DBDEE6"/>
					<stop  offset="0.1897" style="stop-color:#B8C0D1"/>
					<stop  offset="0.279" style="stop-color:#8D9DB8"/>
					<stop  offset="0.3776" style="stop-color:#5B799D"/>
					<stop  offset="0.4775" style="stop-color:#025A84"/>
					<stop  offset="0.541" style="stop-color:#10486F"/>
					<stop  offset="0.6139" style="stop-color:#12375D"/>
					<stop  offset="0.6869" style="stop-color:#122B50"/>
					<stop  offset="0.7596" style="stop-color:#102349"/>
					<stop  offset="0.8315" style="stop-color:#102147"/>
					<stop  offset="0.9382" style="stop-color:#32A8D0"/>
					<stop  offset="1" style="stop-color:#95D9F7"/>
				</radialGradient>
				<path style="fill:url(#SVGID_00000153679828965018505810000014858337916440149439_);" d="M306.399,250.119
					c-0.004,0.035-0.013,0.056-0.013,0.056s-0.096-0.273-0.156-0.577c-0.308,0.218-1.024-3.314-1.341-3.175l-0.812-3.394
					c-2.531,0.265-1.367,0.14-3.083,0.321l-1.826,7.252l0.067-7.139l-1.05,2.585l1.05-2.52l-0.277,0.033l-1.389-2.009l-0.773-0.021
					l-2.376-2.192c-0.76-0.57-2.273-2.327-1.068-5.044l-0.722-1.939c1.553-1.775,1.195-1.329,1.753-2.1
					c1.1-0.402,0.749-0.233,1.668-0.807c0.06-0.24,0.171-0.695,0.273-0.917l-0.374-1.181l1.215-0.883
					c-0.092-0.121-0.186-0.208-0.261-0.337l-2.391-1.539l0.773-1.068c-0.635-0.443-1.024-1.01-1.306-1.702l-0.128,0.045
					l-1.033-0.898c-0.222-0.059-0.518-0.176-0.831-0.352c-9.325,15.097-15.76,32.084-18.801,49.653l-0.288,0.612
					c0.712,0.398,0.938,1.477,1.81,2.182l0.109,0.085l0.536-0.419c1.11,1.191,1.538,2.262,1.246,3.369l0.378,0.331l3.36-2.413
					l-0.394,4.955c1.031,1.293,0.663,2.469,0.428,3.886c0,0-1.319,0.772-1.365,0.798c0,0,1.806,3.228,1.834,3.293
					c0.129,0.089,0.251,0.19,0.374,0.294c0.264,0.038,0.505,0.094,0.731,0.169l1.863,0.02l0.584-0.782l0.053-0.535h0.333
					c0.51,0,1,0.785,1.434,0.995l3.876-2.902l-1.036,7.471l0.311,0.585l4.813-0.393l-0.808,1.465l0.844,0.289l0.031,0.092
					l1.533-1.229l0.31,2.628c0.577,0.198,0.781,0.229,1.333,0.417l2.172-1.579l-0.583-0.448l0.697-0.695
					c-0.767-3.292-0.349-1.509-0.907-2.995l-0.086-0.106c-0.14-0.482-0.297-0.915-0.297-1.416l-1.06-2.168l0.526-0.379
					c-0.013-0.019,0.228-0.033,0.219-0.04c-0.025-0.412-0.022-0.302-0.022-1.053c0-0.169-0.294-0.342-0.31-0.5l-3.273-2.344
					l1.88-1.305c-0.085-0.256-0.172-0.525-0.205-0.817l-0.632-0.672l0.51-1.046l-1.461-4.271l1.832-0.022l-0.647-1.671l3.209-2.59
					l0.236,0.098l0.692-0.737c0.088-2.59,0.215-1.732-0.153-3.629l0.02-0.042c-0.013-0.031-0.029-0.06-0.035-0.095
					c-0.354-1.043-0.374-1.978-0.388-2.67c-0.036-1.007,0.046-0.576-0.912-2.677c1.503-2.915,1.026-1.942,2.077-4.253
					c2.062-0.215,0.165-0.015,2.331-0.24l0.144,0.736c0.498-1.054,1.198-0.885,2.096-2.047l0.209,1.057l0.104-0.014
					c0.212-0.02,0.236-1.286,0.269-1.294c0,0,0.004-0.018,0,0l0.153-1.131c0.84-1.357,0.438-0.712,0.729-1.361l-0.111-0.225
					L306.399,250.119z"/>
				
					<radialGradient id="SVGID_00000000916207732126245240000015625220538630322611_" cx="443.4218" cy="2370.3159" r="544.8886" gradientTransform="matrix(0.9917 -0.1028 0.1031 0.9947 -268.8093 -2050.6838)" gradientUnits="userSpaceOnUse">
					<stop  offset="0" style="stop-color:#FFFFFF"/>
					<stop  offset="0.0056" style="stop-color:#FFFFFF"/>
					<stop  offset="0.0476" style="stop-color:#F3F3F6"/>
					<stop  offset="0.1116" style="stop-color:#DBDEE6"/>
					<stop  offset="0.1897" style="stop-color:#B8C0D1"/>
					<stop  offset="0.279" style="stop-color:#8D9DB8"/>
					<stop  offset="0.3776" style="stop-color:#5B799D"/>
					<stop  offset="0.4775" style="stop-color:#025A84"/>
					<stop  offset="0.541" style="stop-color:#10486F"/>
					<stop  offset="0.6139" style="stop-color:#12375D"/>
					<stop  offset="0.6869" style="stop-color:#122B50"/>
					<stop  offset="0.7596" style="stop-color:#102349"/>
					<stop  offset="0.8315" style="stop-color:#102147"/>
					<stop  offset="0.9382" style="stop-color:#32A8D0"/>
					<stop  offset="1" style="stop-color:#95D9F7"/>
				</radialGradient>
				<path style="fill:url(#SVGID_00000000916207732126245240000015625220538630322611_);" d="M301.953,230.141
					c-0.134-0.088-0.268-0.166-0.393-0.229l-0.201,1.99c0.039,0.011,0.102,0.016,0.155,0.016L301.953,230.141z"/>
				
					<radialGradient id="SVGID_00000129928123911926965140000015053990877354939031_" cx="444.7155" cy="2370.2793" r="550.4419" gradientTransform="matrix(0.9917 -0.1028 0.1031 0.9947 -268.8093 -2050.6838)" gradientUnits="userSpaceOnUse">
					<stop  offset="0" style="stop-color:#FFFFFF"/>
					<stop  offset="0.0056" style="stop-color:#FFFFFF"/>
					<stop  offset="0.0476" style="stop-color:#F3F3F6"/>
					<stop  offset="0.1116" style="stop-color:#DBDEE6"/>
					<stop  offset="0.1897" style="stop-color:#B8C0D1"/>
					<stop  offset="0.279" style="stop-color:#8D9DB8"/>
					<stop  offset="0.3776" style="stop-color:#5B799D"/>
					<stop  offset="0.4775" style="stop-color:#025A84"/>
					<stop  offset="0.541" style="stop-color:#10486F"/>
					<stop  offset="0.6139" style="stop-color:#12375D"/>
					<stop  offset="0.6869" style="stop-color:#122B50"/>
					<stop  offset="0.7596" style="stop-color:#102349"/>
					<stop  offset="0.8315" style="stop-color:#102147"/>
					<stop  offset="0.9382" style="stop-color:#32A8D0"/>
					<stop  offset="1" style="stop-color:#95D9F7"/>
				</radialGradient>
				<path style="fill:url(#SVGID_00000129928123911926965140000015053990877354939031_);" d="M322.706,260.808
					c0.054,0.261-0.198,0.878,0.347,0.691l0.104-0.063l0.075,0.088c0.438-0.204,0.398-0.725,0.764-0.239
					c-0.6,0.543-1.675,1.018-1.975,1.596l-0.298,0.225c-0.353,0.31-0.407,0.671-0.174,1.068l0.287-0.041l0.096-0.075
					c0.324,0.123,0.739-0.491,1.096-0.648c0.172-0.135,0.337-0.254,0.512-0.374c0.638,0.374,1.397-0.046,1.999,0.582
					c0.252-0.12,0.476,0.479,0.456,0.625c-0.625,0.446-1.542,0.968-1.168,1.627l0.352,0.059c0.194-0.067,0.371-0.039,0.552-0.102
					c0.615-0.085,1.314-0.655,1.941-0.778c1.132-0.73,2.086-0.169,3.261-1.131c0.234,0.091,1.033-0.498,1.023-0.752l0.203-0.143
					c-0.125-0.233,0.124-0.404,0.004-0.638l-0.074-0.106c-0.098-0.739,0.793-1.321,1.396-1.97l0.099-0.063l-0.067-0.103l0.099-0.077
					c0.174-0.638,0.279-1.286,0.297-1.956c0.127-0.081,0.082-0.05,0.213-0.148c-0.122-0.254,0.536-0.402,0.459-0.662
					c0.828-0.533,0.619-1.227,0.305-1.953c-0.403-0.835-0.08-1.67,0.386-2.474c-0.311-0.579-0.691-0.568-1.05-0.804
					c-0.361-0.621-0.805-0.723-1.243-0.84c-0.169,0.174-0.309,0.047-0.483,0.197c-0.205-0.005-0.45,0.189-0.657,0.181
					c-0.184-0.384-0.427-0.427-0.633-0.652c-0.174-0.181-0.418,0.003-0.591-0.184c-0.085-0.374,0.184-0.686-0.195-1.121
					l-0.279,0.049c-0.642-0.003-0.664,0.869-0.651,1.256l-0.352-0.052l-0.146-0.209c-0.339,0.019-0.605-0.395-0.971-0.24
					l-0.247,0.508c-0.264,0.459-0.007,0.914,0.438,1.258c-0.291,0.433-0.854,0.832-0.406,1.386
					c-0.228,0.282-0.349-0.056-0.561,0.098l-0.074-0.102c-0.241,0.18-0.431,0.043-0.678,0.346c-0.166,0.506,0.5,0.609,0.466,1.066
					c-0.2-0.164-0.409-0.091-0.582-0.368l-0.174-0.011c-0.853-0.568-1.865,0.793-0.708,1.613c-0.075,0.452-0.533-0.006-0.836,0.139
					l-0.152-0.198l-0.355-0.064c-0.904,0.511-0.374,0.927,0.139,1.47c-0.139,0.084-0.373-0.004-0.309,0.225l-0.102,0.081
					l-0.122,0.257c0.146,0.317,0.234,0.642,0.388,0.968c-0.691-0.395-1.237-1.8-2.056-1.324l-0.08-0.095
					c-0.507-0.275-1.005-0.593-1.605-0.267c-0.551-0.187-1.253,0.648-1.249,1.085c0.215,0.214,0.427,0.366,0.681,0.289l-0.033,0.183
					c-0.376-0.073-0.467,0.306-0.533,0.546c0.25,0.539,0.599,0.462,0.878,0.773c-0.285,0.105-0.586,0.295-0.869,0.328l0.077,0.098
					c-0.267,0.14-0.378,0.299-0.436,0.483c0.112,0.461,0.869-0.142,0.685,0.281c-0.319,0.38-0.554,0.772-0.19,1.249l0.167,0.027
					c0.236-0.183,0.211-0.162,0.306-0.225c0.935-0.374,1.832-1.533,2.968-2.174C322.917,260.544,322.89,260.688,322.706,260.808z"/>
				
					<radialGradient id="SVGID_00000173149496413202325850000015277323287523687329_" cx="444.7125" cy="2370.2769" r="550.3582" gradientTransform="matrix(0.9917 -0.1028 0.1031 0.9947 -268.8093 -2050.6838)" gradientUnits="userSpaceOnUse">
					<stop  offset="0" style="stop-color:#FFFFFF"/>
					<stop  offset="0.0056" style="stop-color:#FFFFFF"/>
					<stop  offset="0.0476" style="stop-color:#F3F3F6"/>
					<stop  offset="0.1116" style="stop-color:#DBDEE6"/>
					<stop  offset="0.1897" style="stop-color:#B8C0D1"/>
					<stop  offset="0.279" style="stop-color:#8D9DB8"/>
					<stop  offset="0.3776" style="stop-color:#5B799D"/>
					<stop  offset="0.4775" style="stop-color:#025A84"/>
					<stop  offset="0.541" style="stop-color:#10486F"/>
					<stop  offset="0.6139" style="stop-color:#12375D"/>
					<stop  offset="0.6869" style="stop-color:#122B50"/>
					<stop  offset="0.7596" style="stop-color:#102349"/>
					<stop  offset="0.8315" style="stop-color:#102147"/>
					<stop  offset="0.9382" style="stop-color:#32A8D0"/>
					<stop  offset="1" style="stop-color:#95D9F7"/>
				</radialGradient>
				<path style="fill:url(#SVGID_00000173149496413202325850000015277323287523687329_);" d="M359.394,264.012
					c-0.131,0.906,0.941,0.525,1.125,0.902c0.184,0.392-0.754,1.163,0.207,1.578c0.217,0.227,0.266,0.409,0.266,0.6
					c-0.324,0.218-0.523-0.465-0.881-0.146c-0.568,0.983,0.421,1.816,1.353,1.841c0.156-0.202,0.768-0.349,0.629-0.625
					c0.53,0.082,0.02,0.79,0.012,1.1c0.289,0.283,0.083,0.564,0.46,0.61c0.558,0.021,0.663-0.639,0.872-0.953
					c0.174,0.169,0.403,0.098,0.573,0.363c0.159-0.053,0.303-0.013,0.433,0.162c0.25,0.343,0.494,0.688,0.745,1.024
					c0.48,0.384,0.536,1.165,0.898,1.228l0.08,0.109c0.405,0.628,1.345,0.389,1.671-0.289c0.216-0.205,0.333-0.423,0.466-0.652
					l0.146,0.204c0.637,0.6,1.262,1.252,2.02,1.04c0.822,0.718,0.559,1.936-0.415,2.667l-0.23,0.323
					c-0.346,0.265,0.147,1.118,0.545,1.182l0.145,0.211c0.283,0.162,0.647-0.286,0.931-0.229c0.145,0.997-0.746,1.836-0.43,2.84
					c0.972,0.304,2.148-0.575,3.198-0.764c0.01,0.306-0.42,0.539-0.493,0.832c-0.376,0.479-0.276,1.047-0.075,1.62l0.056,0.278
					l0.068,0.109c-0.054,0.689-0.565,1.306-0.049,2.077c0.318,0.047,0.832-0.387,0.749-0.688c0.415-0.383,0.301-0.863,0.824-1.236
					l0.2-0.156c0.682,0.011,0.955-0.81,0.836-1.23l0.05-0.358c-0.038-0.441-0.028-0.455,0.285-0.685
					c0.301,0.286,1.18-0.183,1.282-0.611l0.102-0.082c0.186-0.392,0.177-0.818,0.717-1.153c0.878-1.163,2.867-2.167,2.449-3.538
					c-0.188,0.055-0.353,0.039-0.553,0.101c-0.212-0.014-0.432,0.057-0.632-0.011l-0.148-0.208c0.219-0.536,0.127-1.121,0.347-1.671
					l-0.075-0.102c-0.06-0.281,0.095-0.531-0.14-0.849l0.025-0.162c-0.319-0.641-0.757-0.556-1.185-0.549l-0.179-0.024
					c-0.12,0.077-0.075,0.041-0.195,0.148c-0.413-0.114-0.914,0.342-1.383,0.701c-0.149-0.214-0.299-0.425-0.448-0.639l-0.177-0.018
					c-0.181-0.358-0.441-0.289-0.65-0.461c-0.552-0.522-1.104-1.085-1.742-1.096c-1.072-0.642-2.392,0.239-3.409-0.811
					c-0.53-0.207-0.983-1.053-1.525-1.236c-0.612-0.353-1.354,0.088-1.977-0.13c0.144-0.976-0.228-2.034-0.343-3.052l-0.076-0.099
					c0.239-0.423-0.129-1.558-0.793-1.304l-0.177-0.025c-0.481,0.346-0.901,0.373-1.37,0.684c-0.498,0.296-0.699,0.614-0.878,0.963
					c-0.209,0.18-0.361,0.829-0.575,0.713c-0.24-0.881-0.008-1.682-0.137-2.56c0.251-0.269-0.125-1.114-0.555-1.171l-0.09,0.073
					c-0.179-0.216-0.467,0.271-0.696,0.344c-0.289,0.68-1.803,1.18-2.092,1.851c-0.508,0.25-0.169,0.634,0.113,1.018
					L359.394,264.012z"/>
				
					<radialGradient id="SVGID_00000181809862148046185030000009599294993903902342_" cx="444.7143" cy="2370.2783" r="550.377" gradientTransform="matrix(0.9917 -0.1028 0.1031 0.9947 -268.8093 -2050.6838)" gradientUnits="userSpaceOnUse">
					<stop  offset="0" style="stop-color:#FFFFFF"/>
					<stop  offset="0.0056" style="stop-color:#FFFFFF"/>
					<stop  offset="0.0476" style="stop-color:#F3F3F6"/>
					<stop  offset="0.1116" style="stop-color:#DBDEE6"/>
					<stop  offset="0.1897" style="stop-color:#B8C0D1"/>
					<stop  offset="0.279" style="stop-color:#8D9DB8"/>
					<stop  offset="0.3776" style="stop-color:#5B799D"/>
					<stop  offset="0.4775" style="stop-color:#025A84"/>
					<stop  offset="0.541" style="stop-color:#10486F"/>
					<stop  offset="0.6139" style="stop-color:#12375D"/>
					<stop  offset="0.6869" style="stop-color:#122B50"/>
					<stop  offset="0.7596" style="stop-color:#102349"/>
					<stop  offset="0.8315" style="stop-color:#102147"/>
					<stop  offset="0.9382" style="stop-color:#32A8D0"/>
					<stop  offset="1" style="stop-color:#95D9F7"/>
				</radialGradient>
				<path style="fill:url(#SVGID_00000181809862148046185030000009599294993903902342_);" d="M351.343,265.313
					c0.301-0.634,1.06-0.79,1.648-0.966c0.343-0.022,0.702-0.149,1.05-0.177l-0.117-0.154c-0.47,0.073-0.889-0.165-1.364,0.06
					c-0.181-0.141-0.406-0.018-0.577-0.163c-0.349-0.094-0.551-0.581-0.101-0.764c-0.305-0.028-0.669,0.235-0.987,0.249
					c0.119,0.28,0.304,0.134,0.41,0.406c0.152-0.131,0.228,0.254,0.358,0.338c-0.071,0.285-0.534,0.5-0.724,0.293l-0.124-0.018
					c-0.021,0.279,0.428,0.42,0.48,0.824L351.343,265.313z"/>
				
					<radialGradient id="SVGID_00000147923010539089767930000017864590392973095340_" cx="444.712" cy="2370.3384" r="550.9383" gradientTransform="matrix(0.9917 -0.1028 0.1031 0.9947 -268.8093 -2050.6838)" gradientUnits="userSpaceOnUse">
					<stop  offset="0" style="stop-color:#FFFFFF"/>
					<stop  offset="0.0056" style="stop-color:#FFFFFF"/>
					<stop  offset="0.0476" style="stop-color:#F3F3F6"/>
					<stop  offset="0.1116" style="stop-color:#DBDEE6"/>
					<stop  offset="0.1897" style="stop-color:#B8C0D1"/>
					<stop  offset="0.279" style="stop-color:#8D9DB8"/>
					<stop  offset="0.3776" style="stop-color:#5B799D"/>
					<stop  offset="0.4775" style="stop-color:#025A84"/>
					<stop  offset="0.541" style="stop-color:#10486F"/>
					<stop  offset="0.6139" style="stop-color:#12375D"/>
					<stop  offset="0.6869" style="stop-color:#122B50"/>
					<stop  offset="0.7596" style="stop-color:#102349"/>
					<stop  offset="0.8315" style="stop-color:#102147"/>
					<stop  offset="0.9382" style="stop-color:#32A8D0"/>
					<stop  offset="1" style="stop-color:#95D9F7"/>
				</radialGradient>
				<path style="fill:url(#SVGID_00000147923010539089767930000017864590392973095340_);" d="M384.265,224.741
					c-0.201,0.092-1.695,1.015-1.887,1.13h-0.01c0.05,0.477,0.64,0.759,0.967,0.661c0.282,0.38,0.622,0.338,0.961,0.359
					c0.305-0.073,0.605-0.056,0.94-0.338c0.212-0.472-0.565-0.641-0.784-1.067c0.098-0.192-0.055-0.427-0.239-0.66l0.07-0.06
					L384.265,224.741z"/>
				
					<radialGradient id="SVGID_00000033359606189979731490000010339036225007228059_" cx="444.8238" cy="2370.4138" r="551.5906" gradientTransform="matrix(0.9917 -0.1028 0.1031 0.9947 -268.8093 -2050.6838)" gradientUnits="userSpaceOnUse">
					<stop  offset="0" style="stop-color:#FFFFFF"/>
					<stop  offset="0.0056" style="stop-color:#FFFFFF"/>
					<stop  offset="0.0476" style="stop-color:#F3F3F6"/>
					<stop  offset="0.1116" style="stop-color:#DBDEE6"/>
					<stop  offset="0.1897" style="stop-color:#B8C0D1"/>
					<stop  offset="0.279" style="stop-color:#8D9DB8"/>
					<stop  offset="0.3776" style="stop-color:#5B799D"/>
					<stop  offset="0.4775" style="stop-color:#025A84"/>
					<stop  offset="0.541" style="stop-color:#10486F"/>
					<stop  offset="0.6139" style="stop-color:#12375D"/>
					<stop  offset="0.6869" style="stop-color:#122B50"/>
					<stop  offset="0.7596" style="stop-color:#102349"/>
					<stop  offset="0.8315" style="stop-color:#102147"/>
					<stop  offset="0.9382" style="stop-color:#32A8D0"/>
					<stop  offset="1" style="stop-color:#95D9F7"/>
				</radialGradient>
				<path style="fill:url(#SVGID_00000033359606189979731490000010339036225007228059_);" d="M350.975,250.616
					c0.142-0.137,0.039-0.319-0.115-0.489c-0.047,0.069-0.286,0.415-0.358,0.495l0.06,0.063
					C350.713,250.581,350.816,250.831,350.975,250.616z"/>
				
					<radialGradient id="SVGID_00000114038440706788255220000011932627932292024748_" cx="444.9669" cy="2370.269" r="548.9592" gradientTransform="matrix(0.9917 -0.1028 0.1031 0.9947 -268.8093 -2050.6838)" gradientUnits="userSpaceOnUse">
					<stop  offset="0" style="stop-color:#FFFFFF"/>
					<stop  offset="0.0056" style="stop-color:#FFFFFF"/>
					<stop  offset="0.0476" style="stop-color:#F3F3F6"/>
					<stop  offset="0.1116" style="stop-color:#DBDEE6"/>
					<stop  offset="0.1897" style="stop-color:#B8C0D1"/>
					<stop  offset="0.279" style="stop-color:#8D9DB8"/>
					<stop  offset="0.3776" style="stop-color:#5B799D"/>
					<stop  offset="0.4775" style="stop-color:#025A84"/>
					<stop  offset="0.541" style="stop-color:#10486F"/>
					<stop  offset="0.6139" style="stop-color:#12375D"/>
					<stop  offset="0.6869" style="stop-color:#122B50"/>
					<stop  offset="0.7596" style="stop-color:#102349"/>
					<stop  offset="0.8315" style="stop-color:#102147"/>
					<stop  offset="0.9382" style="stop-color:#32A8D0"/>
					<stop  offset="1" style="stop-color:#95D9F7"/>
				</radialGradient>
				<path style="fill:url(#SVGID_00000114038440706788255220000011932627932292024748_);" d="M490.11,293.129l-0.052-0.085
					c0.042-0.2-0.174-0.348-0.366-0.321l-0.067,0.054C488.947,292.809,489.606,293.862,490.11,293.129z"/>
				
					<radialGradient id="SVGID_00000164504699959387712840000002969507607701339797_" cx="444.2338" cy="2370.4368" r="549.1254" gradientTransform="matrix(0.9917 -0.1028 0.1031 0.9947 -268.8093 -2050.6838)" gradientUnits="userSpaceOnUse">
					<stop  offset="0" style="stop-color:#FFFFFF"/>
					<stop  offset="0.0056" style="stop-color:#FFFFFF"/>
					<stop  offset="0.0476" style="stop-color:#F3F3F6"/>
					<stop  offset="0.1116" style="stop-color:#DBDEE6"/>
					<stop  offset="0.1897" style="stop-color:#B8C0D1"/>
					<stop  offset="0.279" style="stop-color:#8D9DB8"/>
					<stop  offset="0.3776" style="stop-color:#5B799D"/>
					<stop  offset="0.4775" style="stop-color:#025A84"/>
					<stop  offset="0.541" style="stop-color:#10486F"/>
					<stop  offset="0.6139" style="stop-color:#12375D"/>
					<stop  offset="0.6869" style="stop-color:#122B50"/>
					<stop  offset="0.7596" style="stop-color:#102349"/>
					<stop  offset="0.8315" style="stop-color:#102147"/>
					<stop  offset="0.9382" style="stop-color:#32A8D0"/>
					<stop  offset="1" style="stop-color:#95D9F7"/>
				</radialGradient>
				<path style="fill:url(#SVGID_00000164504699959387712840000002969507607701339797_);" d="M384.778,388.511
					c-0.047-0.215,0.018-0.409-0.228-0.648C383.957,387.816,384.241,388.931,384.778,388.511z"/>
				
					<radialGradient id="SVGID_00000058565596588624815350000011904537366514019735_" cx="444.472" cy="2370.7349" r="548.6821" gradientTransform="matrix(0.9917 -0.1028 0.1031 0.9947 -268.8093 -2050.6838)" gradientUnits="userSpaceOnUse">
					<stop  offset="0" style="stop-color:#FFFFFF"/>
					<stop  offset="0.0056" style="stop-color:#FFFFFF"/>
					<stop  offset="0.0476" style="stop-color:#F3F3F6"/>
					<stop  offset="0.1116" style="stop-color:#DBDEE6"/>
					<stop  offset="0.1897" style="stop-color:#B8C0D1"/>
					<stop  offset="0.279" style="stop-color:#8D9DB8"/>
					<stop  offset="0.3776" style="stop-color:#5B799D"/>
					<stop  offset="0.4775" style="stop-color:#025A84"/>
					<stop  offset="0.541" style="stop-color:#10486F"/>
					<stop  offset="0.6139" style="stop-color:#12375D"/>
					<stop  offset="0.6869" style="stop-color:#122B50"/>
					<stop  offset="0.7596" style="stop-color:#102349"/>
					<stop  offset="0.8315" style="stop-color:#102147"/>
					<stop  offset="0.9382" style="stop-color:#32A8D0"/>
					<stop  offset="1" style="stop-color:#95D9F7"/>
				</radialGradient>
				<path style="fill:url(#SVGID_00000058565596588624815350000011904537366514019735_);" d="M464.99,353.002
					c0.346,0.35,0.983-0.396,0.433-0.543C465.084,352.295,464.84,352.72,464.99,353.002z"/>
				
					<radialGradient id="SVGID_00000106130523821469213070000002608193757641346986_" cx="463.8652" cy="356.7383" r="0" gradientUnits="userSpaceOnUse">
					<stop  offset="0" style="stop-color:#FFFFFF"/>
					<stop  offset="0.2545" style="stop-color:#FCEE21"/>
					<stop  offset="0.5576" style="stop-color:#F69321"/>
					<stop  offset="1" style="stop-color:#721011"/>
				</radialGradient>
				<path style="fill:url(#SVGID_00000106130523821469213070000002608193757641346986_);" d="M463.865,356.738"/>
			</g>
			<g>
				
					<radialGradient id="SVGID_00000044892194606965747590000011953529600633715328_" cx="2396.155" cy="-384.0996" r="102.6122" fx="2343.9961" fy="-389.0244" gradientTransform="matrix(0.2049 -1.0135 -1.0789 -0.0897 -459.9024 2739.7559)" gradientUnits="userSpaceOnUse">
					<stop  offset="0" style="stop-color:#FFFFFF"/>
					<stop  offset="0.4973" style="stop-color:#DEE894"/>
					<stop  offset="0.5659" style="stop-color:#DBE691"/>
					<stop  offset="0.6414" style="stop-color:#D2E288"/>
					<stop  offset="0.7202" style="stop-color:#C2DB78"/>
					<stop  offset="0.8013" style="stop-color:#ADD25F"/>
					<stop  offset="0.8833" style="stop-color:#91C844"/>
					<stop  offset="0.9016" style="stop-color:#8AC640"/>
					<stop  offset="1" style="stop-color:#37A448"/>
				</radialGradient>
				<path style="fill:url(#SVGID_00000044892194606965747590000011953529600633715328_);" d="M391.547,421.732
					c1.582-6.667,6.06-29.135,25.828-52.25c38.66-42.524,96.25-40.516,101.299-40.64c0,0,12.564,0.164,22.785-7.528
					c8.404-6.318,10.971-20.533,10.971-20.533c8.211,63.211-25.13,116.825-76.457,140.428c-47.094,21.658-80.639-6.512-80.639-6.512
					S389.862,430.851,391.547,421.732z"/>
				
					<radialGradient id="SVGID_00000005967498431282363210000004986767209356445318_" cx="2288.7786" cy="-413.7446" r="58.8344" gradientTransform="matrix(0.2049 -1.0135 -1.0789 -0.0897 -459.9024 2739.7559)" gradientUnits="userSpaceOnUse">
					<stop  offset="0.1148" style="stop-color:#FFFFFF"/>
					<stop  offset="0.3607" style="stop-color:#DEE894"/>
					<stop  offset="0.4348" style="stop-color:#DCE791"/>
					<stop  offset="0.5165" style="stop-color:#D6E488"/>
					<stop  offset="0.6017" style="stop-color:#CCDF77"/>
					<stop  offset="0.6893" style="stop-color:#BDD85D"/>
					<stop  offset="0.778" style="stop-color:#ABD03E"/>
					<stop  offset="0.7978" style="stop-color:#A6CE38"/>
					<stop  offset="1" style="stop-color:#61BB46"/>
				</radialGradient>
				<path style="fill:url(#SVGID_00000005967498431282363210000004986767209356445318_);" d="M401.46,428.599
					c4.257,4.891,35.713,28.29,79.947,7.783c18.674-8.655,30.188-18.729,42.116-31.645c-12.744,15.439-28.973,27.927-47.551,36.472
					c-47.094,21.658-80.323-6.708-80.323-6.708s-2.042-1.298-3.237-4.497C395.54,429.592,398.328,429.088,401.46,428.599z"/>
				
					<radialGradient id="SVGID_00000036249703571483750020000004948987749703720367_" cx="2434.4871" cy="-362.847" r="119.0179" fx="2419.9729" fy="-330.7413" gradientTransform="matrix(0.2049 -1.0135 -1.0789 -0.0897 -459.9024 2739.7559)" gradientUnits="userSpaceOnUse">
					<stop  offset="0" style="stop-color:#FFFFFF"/>
					<stop  offset="0.4973" style="stop-color:#DEE894"/>
					<stop  offset="0.5659" style="stop-color:#DBE691"/>
					<stop  offset="0.6414" style="stop-color:#D2E288"/>
					<stop  offset="0.7202" style="stop-color:#C2DB78"/>
					<stop  offset="0.8013" style="stop-color:#ADD25F"/>
					<stop  offset="0.8833" style="stop-color:#91C844"/>
					<stop  offset="0.9016" style="stop-color:#8AC640"/>
					<stop  offset="1" style="stop-color:#37A448"/>
				</radialGradient>
				<path style="fill:url(#SVGID_00000036249703571483750020000004948987749703720367_);" d="M417.375,369.482
					c38.66-42.524,96.25-40.516,101.299-40.64c0,0,12.564,0.164,22.785-7.528c7.904-5.939,10.633-18.859,10.948-20.376
					c-0.47,25.108-20.222,53.565-31.809,67.204c-45.658,51.773-112.619,60.735-128.412,62.147c-0.821-2.064-1.313-4.868-0.64-8.557
					C393.128,415.065,397.607,392.598,417.375,369.482z"/>
				
					<radialGradient id="SVGID_00000042005615562521331210000017350392234262163894_" cx="2353.8308" cy="-439.7316" r="66.7761" gradientTransform="matrix(0.2049 -1.0135 -1.0789 -0.0897 -459.9024 2739.7559)" gradientUnits="userSpaceOnUse">
					<stop  offset="0" style="stop-color:#FFFFFF"/>
					<stop  offset="0.4973" style="stop-color:#DEE894"/>
					<stop  offset="0.5826" style="stop-color:#DCE791"/>
					<stop  offset="0.6765" style="stop-color:#D6E488"/>
					<stop  offset="0.7744" style="stop-color:#CCDF77"/>
					<stop  offset="0.8752" style="stop-color:#BDD85D"/>
					<stop  offset="0.9772" style="stop-color:#ABD03E"/>
					<stop  offset="1" style="stop-color:#A6CE38"/>
				</radialGradient>
				<path style="fill:url(#SVGID_00000042005615562521331210000017350392234262163894_);" d="M396.243,432.176
					c-0.11-0.476-0.23-0.957-0.364-1.433c-0.12-0.385-0.276-0.746-0.483-1.082c-0.085-0.936-0.155-1.885-0.326-2.801
					c27.79-1.788,120.905-14.9,154.803-109.903C520.038,419.17,414.606,430.908,396.243,432.176z"/>
				
					<radialGradient id="SVGID_00000072992443376666325220000012139933773029297850_" cx="2373.1646" cy="-446.1714" r="115.9608" gradientTransform="matrix(0.2049 -1.0135 -1.0789 -0.0897 -459.9024 2739.7559)" gradientUnits="userSpaceOnUse">
					<stop  offset="0" style="stop-color:#DEE894"/>
					<stop  offset="0.3716" style="stop-color:#A6CE38"/>
					<stop  offset="0.8197" style="stop-color:#228C43"/>
					<stop  offset="0.8798" style="stop-color:#1D6A36"/>
				</radialGradient>
				<path style="fill:url(#SVGID_00000072992443376666325220000012139933773029297850_);" d="M377.052,427.46
					c0,0,129.509,2.388,172.821-110.503C510.148,430.67,378.651,434.364,378.651,434.364s-6.319,0.365-6.153-3.088
					C372.745,428.897,374.49,427.504,377.052,427.46z"/>
				
					<radialGradient id="SVGID_00000168830695355448477150000012928532359025832606_" cx="2402.4219" cy="-423.9121" r="120.749" gradientTransform="matrix(0.2049 -1.0135 -1.0789 -0.0897 -459.9024 2739.7559)" gradientUnits="userSpaceOnUse">
					<stop  offset="0" style="stop-color:#FFFFFF"/>
					<stop  offset="0.4973" style="stop-color:#DEE894"/>
					<stop  offset="0.5826" style="stop-color:#DCE791"/>
					<stop  offset="0.6765" style="stop-color:#D6E488"/>
					<stop  offset="0.7744" style="stop-color:#CCDF77"/>
					<stop  offset="0.8752" style="stop-color:#BDD85D"/>
					<stop  offset="0.9772" style="stop-color:#ABD03E"/>
					<stop  offset="1" style="stop-color:#A6CE38"/>
				</radialGradient>
				<path style="fill:url(#SVGID_00000168830695355448477150000012928532359025832606_);" d="M516.914,336.91
					c-10.306,0.694-63.902,0.999-101.048,44.139c0.85-1.149,1.719-2.3,2.646-3.445c37.173-43.612,94.996-43.505,100.042-43.781
					c0,0,12.928,0.456,21.878-7.704c1.884-1.723,4.329-4.215,5.658-6.421c-1.542,3.299-4.267,7.06-7.11,9.495
					C529.276,337.525,516.914,336.91,516.914,336.91z"/>
				
					<radialGradient id="SVGID_00000068665781571113526160000013663759823581300393_" cx="2410.1719" cy="-435.2263" r="125.7085" gradientTransform="matrix(0.2049 -1.0135 -1.0789 -0.0897 -459.9024 2739.7559)" gradientUnits="userSpaceOnUse">
					<stop  offset="0" style="stop-color:#DEE894"/>
					<stop  offset="0.3716" style="stop-color:#A6CE38"/>
					<stop  offset="0.8743" style="stop-color:#228C43"/>
					<stop  offset="1" style="stop-color:#1D6A36"/>
				</radialGradient>
				<path style="fill:url(#SVGID_00000068665781571113526160000013663759823581300393_);" d="M541.475,323.042
					c-8.7,6.86-19.762,7.165-19.762,7.165c-5.035,0.064-62.777-2.667-100.547,39.352c-19.226,22.746-24.082,44.193-25.626,50.75
					c-1.657,8.975,3.625,12.736,3.625,12.736s33.162,28.405,78.922,7.06c3.061-1.434,6.064-2.983,8.985-4.639
					c-3.588,2.069-7.298,3.991-11.1,5.743c-47.094,21.658-80.843-6.462-80.843-6.462s-5.268-3.897-3.583-13.015
					c1.582-6.667,6.06-29.135,25.828-52.25c38.66-42.524,96.25-40.516,101.299-40.64c0,0,12.564,0.164,22.785-7.528
					c8.404-6.318,10.971-20.533,10.971-20.533S551.014,315.508,541.475,323.042z"/>
			</g>
			<g>
				
					<radialGradient id="SVGID_00000018946557579957747290000010561021174634249658_" cx="1397.9425" cy="-1143.3212" r="179.788" fx="1300.0201" fy="-1203.6248" gradientTransform="matrix(0.2399 -1.0397 1.0628 0.3069 1316.1648 2104.9602)" gradientUnits="userSpaceOnUse">
					<stop  offset="0" style="stop-color:#FFFFFF"/>
					<stop  offset="0.4973" style="stop-color:#DEE894"/>
					<stop  offset="0.5659" style="stop-color:#DBE691"/>
					<stop  offset="0.6414" style="stop-color:#D2E288"/>
					<stop  offset="0.7202" style="stop-color:#C2DB78"/>
					<stop  offset="0.8013" style="stop-color:#ADD25F"/>
					<stop  offset="0.8833" style="stop-color:#91C844"/>
					<stop  offset="0.9016" style="stop-color:#8AC640"/>
					<stop  offset="1" style="stop-color:#37A448"/>
				</radialGradient>
				<path style="fill:url(#SVGID_00000018946557579957747290000010561021174634249658_);" d="M404.505,442.434
					c1.643-8.366,8.16-36.211-2.542-71.521c-22.345-65.949-89.501-88.981-95.219-91.331c0,0-14.519-5.35-22.264-18.7
					c-6.37-10.978-1.954-28.465-1.954-28.465c-42.2,69.174-31.714,145.556,14.961,195.315
					c42.848,45.646,95.962,27.971,95.962,27.971S401.714,453.674,404.505,442.434z"/>
				
					<radialGradient id="SVGID_00000086679015235925277770000015805623709540597433_" cx="1226.4037" cy="-1220.9432" r="71.1408" gradientTransform="matrix(0.2399 -1.0397 1.0628 0.3069 1316.1648 2104.9602)" gradientUnits="userSpaceOnUse">
					<stop  offset="0.1148" style="stop-color:#FFFFFF"/>
					<stop  offset="0.3607" style="stop-color:#DEE894"/>
					<stop  offset="0.4348" style="stop-color:#DCE791"/>
					<stop  offset="0.5165" style="stop-color:#D6E488"/>
					<stop  offset="0.6017" style="stop-color:#CCDF77"/>
					<stop  offset="0.6893" style="stop-color:#BDD85D"/>
					<stop  offset="0.778" style="stop-color:#ABD03E"/>
					<stop  offset="0.7978" style="stop-color:#A6CE38"/>
					<stop  offset="1" style="stop-color:#61BB46"/>
				</radialGradient>
				<path style="fill:url(#SVGID_00000086679015235925277770000015805623709540597433_);" d="M389.57,445.967
					c-7.424,3.773-55.655,16.876-95.797-26.191c-16.956-18.195-24.964-34.847-31.954-54.956
					c6.625,23.392,18.781,44.889,35.668,62.913c42.848,45.646,95.69,27.597,95.69,27.597s3.01-0.58,6.044-3.762
					C395.859,449.721,392.907,447.923,389.57,445.967z"/>
				
					<radialGradient id="SVGID_00000075868170385552872790000000590561024117845927_" cx="1446.1965" cy="-1145.6748" r="181.524" gradientTransform="matrix(0.2399 -1.0397 1.0628 0.3069 1316.1648 2104.9602)" gradientUnits="userSpaceOnUse">
					<stop  offset="0" style="stop-color:#FFFFFF"/>
					<stop  offset="0.4973" style="stop-color:#DEE894"/>
					<stop  offset="0.5659" style="stop-color:#DBE691"/>
					<stop  offset="0.6414" style="stop-color:#D2E288"/>
					<stop  offset="0.7202" style="stop-color:#C2DB78"/>
					<stop  offset="0.8013" style="stop-color:#ADD25F"/>
					<stop  offset="0.8833" style="stop-color:#91C844"/>
					<stop  offset="0.9016" style="stop-color:#8AC640"/>
					<stop  offset="1" style="stop-color:#37A448"/>
				</radialGradient>
				<path style="fill:url(#SVGID_00000075868170385552872790000000590561024117845927_);" d="M401.963,370.913
					c-22.345-65.949-89.501-88.981-95.219-91.331c0,0-14.519-5.35-22.264-18.7c-5.998-10.311-2.442-26.372-1.999-28.278
					c-12.484,29.123-4.561,70.564,1.678,91.374c25.572,79.701,97.793,119.448,115.183,128.028c2.009-2.006,4.035-5.028,5.163-9.572
					C406.148,434.067,412.665,406.223,401.963,370.913z"/>
				
					<radialGradient id="SVGID_00000013913233518637832440000002663142973173141421_" cx="1305.0547" cy="-1252.347" r="80.7417" gradientTransform="matrix(0.2399 -1.0397 1.0628 0.3069 1316.1648 2104.9602)" gradientUnits="userSpaceOnUse">
					<stop  offset="0" style="stop-color:#FFFFFF"/>
					<stop  offset="0.4973" style="stop-color:#DEE894"/>
					<stop  offset="0.5826" style="stop-color:#DCE791"/>
					<stop  offset="0.6765" style="stop-color:#D6E488"/>
					<stop  offset="0.7744" style="stop-color:#CCDF77"/>
					<stop  offset="0.8752" style="stop-color:#BDD85D"/>
					<stop  offset="0.9772" style="stop-color:#ABD03E"/>
					<stop  offset="1" style="stop-color:#A6CE38"/>
				</radialGradient>
				<path style="fill:url(#SVGID_00000013913233518637832440000002663142973173141421_);" d="M393.703,452.404
					c0.381-0.508,0.769-1.016,1.162-1.493c0.342-0.406,0.715-0.739,1.109-1.041c0.606-1.037,1.165-2.089,1.837-3.089
					c-30.977-14.273-131.05-70.315-120.728-194.618C258.345,382.964,373.28,442.85,393.703,452.404z"/>
				
					<radialGradient id="SVGID_00000155845214156146913370000013283609151195927442_" cx="1331.3044" cy="-1256.7509" r="140.2036" gradientTransform="matrix(0.296 -1.1272 1.1905 0.2447 1399.0073 2149.5735)" gradientUnits="userSpaceOnUse">
					<stop  offset="0" style="stop-color:#DEE894"/>
					<stop  offset="0.3716" style="stop-color:#A6CE38"/>
					<stop  offset="0.8197" style="stop-color:#228C43"/>
					<stop  offset="0.8798" style="stop-color:#1D6A36"/>
				</radialGradient>
				<path style="fill:url(#SVGID_00000155845214156146913370000013283609151195927442_);" d="M432.204,458.088
					c0,0-167.652-46.156-154.069-205.749c-18.699,159.282,147.75,213.872,147.75,213.872s7.903,2.897,9.821-1.561
					C436.843,461.551,435.46,459.11,432.204,458.088z"/>
				
					<radialGradient id="SVGID_00000015314752288039332080000011859801404784728992_" cx="1363.8218" cy="-1233.2249" r="145.9786" gradientTransform="matrix(0.2399 -1.0397 1.0628 0.3069 1316.1648 2104.9602)" gradientUnits="userSpaceOnUse">
					<stop  offset="0" style="stop-color:#FFFFFF"/>
					<stop  offset="0.4973" style="stop-color:#DEE894"/>
					<stop  offset="0.5826" style="stop-color:#DCE791"/>
					<stop  offset="0.6765" style="stop-color:#D6E488"/>
					<stop  offset="0.7744" style="stop-color:#CCDF77"/>
					<stop  offset="0.8752" style="stop-color:#BDD85D"/>
					<stop  offset="0.9772" style="stop-color:#ABD03E"/>
					<stop  offset="1" style="stop-color:#A6CE38"/>
				</radialGradient>
				<path style="fill:url(#SVGID_00000015314752288039332080000011859801404784728992_);" d="M304.56,289.641
					c11.479,5.324,72.848,29.251,93.118,95.243c-0.375-1.693-0.788-3.403-1.25-5.118c-20.046-66.557-86.5-91.863-92.145-94.4
					c0,0-15.071-5.145-21.12-18.499c-1.269-2.806-2.784-6.752-3.162-9.879c0.054,4.483,1.246,10.003,3.234,14.055
					C290.067,284.9,304.56,289.641,304.56,289.641z"/>
				
					<radialGradient id="SVGID_00000003091480674306441190000000430013579896747953_" cx="1425.1472" cy="-1318.9764" r="203.7081" gradientTransform="matrix(0.2399 -1.0397 1.0628 0.3069 1316.1648 2104.9602)" gradientUnits="userSpaceOnUse">
					<stop  offset="0" style="stop-color:#DEE894"/>
					<stop  offset="0.3716" style="stop-color:#A6CE38"/>
					<stop  offset="0.8743" style="stop-color:#228C43"/>
					<stop  offset="1" style="stop-color:#1D6A36"/>
				</radialGradient>
				<path style="fill:url(#SVGID_00000003091480674306441190000000430013579896747953_);" d="M283.572,262.867
					c6.423,11.729,18.964,16.951,18.964,16.951c5.741,2.283,73.455,24.526,95.015,89.521c10.292,34.648,4.741,61.469,3.11,69.697
					c-2.741,11.053-10.77,13.08-10.77,13.08s-52.788,18.125-94.256-26.603c-2.773-2.985-5.412-6.084-7.898-9.275
					c3.045,3.955,6.306,7.807,9.75,11.494c42.848,45.646,95.962,27.971,95.962,27.971s8.265-2.029,11.056-13.27
					c1.643-8.366,8.16-36.211-2.542-71.521c-22.345-65.949-89.501-88.981-95.219-91.331c0,0-14.519-5.35-22.264-18.7
					c-6.37-10.978-1.954-28.465-1.954-28.465S276.527,250.002,283.572,262.867z"/>
				<g>
					
						<linearGradient id="SVGID_00000163072953881051299220000015861438036226498180_" gradientUnits="userSpaceOnUse" x1="1395.6617" y1="-869.5094" x2="1393.5054" y2="-852.9464" gradientTransform="matrix(0.2536 -0.9596 1.0389 0.2732 909.2852 1949.5222)">
						<stop  offset="0" style="stop-color:#DEE894"/>
						<stop  offset="0.3716" style="stop-color:#A6CE38"/>
						<stop  offset="0.6721" style="stop-color:#228C43"/>
						<stop  offset="1" style="stop-color:#1D6A36"/>
					</linearGradient>
					<path style="fill:url(#SVGID_00000163072953881051299220000015861438036226498180_);" d="M369.152,381.782
						c-2.83,1.098-6.438-0.964-8.056-4.601c-1.627-3.632-0.651-7.47,2.172-8.573c2.826-1.095,6.435,0.966,8.056,4.601
						C372.948,376.844,371.98,380.684,369.152,381.782z"/>
					
						<radialGradient id="SVGID_00000121272410505950478800000010042331438910568360_" cx="2413.2998" cy="-398.5576" r="32.447" gradientTransform="matrix(-0.142 -0.3179 0.311 -0.1209 837.6932 1093.4567)" gradientUnits="userSpaceOnUse">
						<stop  offset="0.1585" style="stop-color:#FFFFFF"/>
						<stop  offset="0.4973" style="stop-color:#DEE894"/>
						<stop  offset="0.5483" style="stop-color:#DCE791"/>
						<stop  offset="0.6044" style="stop-color:#D5E488"/>
						<stop  offset="0.663" style="stop-color:#CBDF77"/>
						<stop  offset="0.7232" style="stop-color:#BCD85D"/>
						<stop  offset="0.7842" style="stop-color:#A9D03E"/>
						<stop  offset="0.7978" style="stop-color:#A5CE39"/>
						<stop  offset="1" style="stop-color:#61BB46"/>
					</radialGradient>
					<path style="fill:url(#SVGID_00000121272410505950478800000010042331438910568360_);" d="M368.321,381.072
						c-2.614,1.018-5.954-0.894-7.463-4.273c-1.509-3.374-0.609-6.933,2.004-7.954c2.617-1.015,5.953,0.898,7.463,4.279
						C371.835,376.499,370.935,380.054,368.321,381.072z"/>
					<path style="fill:#FFFFFF;" d="M361.487,374.764c-0.508-0.007-0.956-0.6-1-1.333c-0.042-0.738,0.331-1.331,0.841-1.328
						c0.506,0.005,0.954,0.6,1.004,1.332C362.376,374.172,361.997,374.764,361.487,374.764z"/>
					<path style="fill:#FFFFFF;" d="M361.911,376.738c-0.253,0.07-0.564-0.184-0.691-0.558c-0.123-0.381-0.022-0.739,0.235-0.809
						c0.254-0.067,0.565,0.179,0.693,0.56C362.276,376.308,362.172,376.671,361.911,376.738z"/>
				</g>
				<g>
					
						<linearGradient id="SVGID_00000159435045895050841070000010096945194386764984_" gradientUnits="userSpaceOnUse" x1="1423.0535" y1="-896.0037" x2="1419.2888" y2="-867.088" gradientTransform="matrix(0.2536 -0.9596 1.0389 0.2732 909.2852 1949.5222)">
						<stop  offset="0" style="stop-color:#DEE894"/>
						<stop  offset="0.3716" style="stop-color:#A6CE38"/>
						<stop  offset="0.6721" style="stop-color:#228C43"/>
						<stop  offset="1" style="stop-color:#1D6A36"/>
					</linearGradient>
					<path style="fill:url(#SVGID_00000159435045895050841070000010096945194386764984_);" d="M355.478,355.043
						c-4.928,1.917-11.233-1.69-14.068-8.038c-2.838-6.341-1.13-13.055,3.793-14.967c4.935-1.922,11.226,1.675,14.071,8.031
						C362.104,346.419,360.41,353.124,355.478,355.043z"/>
					
						<radialGradient id="SVGID_00000096776226145161394020000006121033513024352687_" cx="2194.9441" cy="-396.3199" r="17.7731" gradientTransform="matrix(-0.4526 -1.0134 0.9912 -0.3852 1745.0671 2413.939)" gradientUnits="userSpaceOnUse">
						<stop  offset="0.1585" style="stop-color:#FFFFFF"/>
						<stop  offset="0.4973" style="stop-color:#DEE894"/>
						<stop  offset="0.5483" style="stop-color:#DCE791"/>
						<stop  offset="0.6044" style="stop-color:#D5E488"/>
						<stop  offset="0.663" style="stop-color:#CBDF77"/>
						<stop  offset="0.7232" style="stop-color:#BCD85D"/>
						<stop  offset="0.7842" style="stop-color:#A9D03E"/>
						<stop  offset="0.7978" style="stop-color:#A5CE39"/>
						<stop  offset="1" style="stop-color:#61BB46"/>
					</radialGradient>
					<path style="fill:url(#SVGID_00000096776226145161394020000006121033513024352687_);" d="M354.02,353.805
						c-4.558,1.767-10.383-1.576-13.028-7.473c-2.633-5.885-1.065-12.109,3.498-13.881c4.567-1.772,10.409,1.561,13.038,7.459
						C360.156,345.804,358.593,352.028,354.02,353.805z"/>
					<path style="fill:#FFFFFF;" d="M342.101,342.777c-0.887-0.005-1.665-1.046-1.746-2.32c-0.084-1.289,0.573-2.325,1.464-2.328
						c0.886,0.002,1.66,1.053,1.745,2.337C343.642,341.747,342.979,342.785,342.101,342.777z"/>
					<path style="fill:#FFFFFF;" d="M342.837,346.228c-0.443,0.132-0.993-0.314-1.212-0.968c-0.215-0.67-0.035-1.306,0.418-1.424
						c0.442-0.117,0.987,0.325,1.194,0.978C343.462,345.471,343.285,346.114,342.837,346.228z"/>
				</g>
			</g>
		</g>
		<g>
			
			<g>
			</g>
			
		</g>
		<g>
			
			
		</g>
	</g>
</g>
</svg>
